<?xml version="1.0" encoding="UTF-8"?>
<svg xmlns="http://www.w3.org/2000/svg" xmlns:xlink="http://www.w3.org/1999/xlink" width="359pt" height="221pt" viewBox="0 0 359 221" version="1.1">
<g id="surface210">
<path style="fill:none;stroke-width:14.36;stroke-linecap:square;stroke-linejoin:miter;stroke:rgb(0%,0%,0%);stroke-opacity:1;stroke-miterlimit:3.25;" d="M 81.179688 223.761719 L 81.285156 24.09375 L 81.390625 24.15625 L 81.496094 24.214844 L 81.707031 24.339844 L 81.8125 24.398438 L 82.027344 24.523438 L 82.132812 24.582031 L 82.449219 24.769531 L 82.871094 25.011719 L 83.082031 25.136719 L 83.292969 25.257812 L 83.71875 25.503906 L 84.5625 25.992188 L 84.773438 26.117188 L 84.984375 26.238281 L 85.40625 26.484375 L 86.253906 26.972656 L 87.945312 27.953125 L 88.058594 28.019531 L 88.175781 28.085938 L 88.402344 28.21875 L 88.863281 28.484375 L 89.777344 29.015625 L 91.613281 30.078125 L 95.277344 32.203125 L 102.125 36.171875 L 108.839844 40.0625 L 116.121094 44.285156 L 122.917969 48.222656 L 130.285156 52.492188 L 137.515625 56.683594 L 144.261719 60.59375 L 151.574219 64.832031 L 158.402344 68.789062 L 165.097656 72.667969 L 172.359375 76.878906 L 179.136719 80.808594 L 186.484375 85.066406 L 193.695312 89.246094 L 200.421875 93.140625 L 207.714844 97.371094 L 214.523438 101.316406 L 221.902344 105.59375 L 229.144531 109.789062 L 235.902344 113.707031 L 243.226562 117.953125 L 250.070312 121.917969 L 256.773438 125.804688 L 264.050781 130.019531 L 270.839844 133.957031 L 278.195312 138.21875 L 285.421875 142.40625 L 292.160156 146.3125 L 299.464844 150.546875 L 306.285156 154.5 L 312.972656 158.375 L 320.226562 162.582031 L 326.996094 166.503906 L 334.335938 170.757812 L 341.1875 174.730469 L 347.90625 178.621094 L 355.195312 182.847656 L 361.996094 186.789062 L 369.363281 191.058594 L 376.601562 195.253906 L 383.351562 199.164062 L 390.667969 203.40625 L 397.503906 207.367188 L 404.199219 211.25 L 411.46875 215.460938 L 418.25 219.394531 L 418.367188 219.460938 L 418.484375 219.53125 L 418.722656 219.667969 L 420.140625 220.488281 L 422.035156 221.585938 L 422.152344 221.65625 L 422.269531 221.722656 L 422.507812 221.859375 L 422.980469 222.136719 L 423.925781 222.683594 L 424.046875 222.753906 L 424.164062 222.820312 L 424.402344 222.957031 L 424.875 223.230469 L 425.109375 223.371094 L 425.347656 223.507812 L 425.464844 223.574219 L 425.582031 223.644531 L 425.703125 223.710938 L 425.820312 223.78125 " transform="matrix(1,0,0,1,-74,-13)"/>
</g>
</svg>
