<?xml version="1.0" encoding="UTF-8"?>
<svg xmlns="http://www.w3.org/2000/svg" xmlns:xlink="http://www.w3.org/1999/xlink" width="359pt" height="221pt" viewBox="0 0 359 221" version="1.1">
<g id="surface203">
<path style="fill:none;stroke-width:14.36;stroke-linecap:square;stroke-linejoin:miter;stroke:rgb(0%,0%,0%);stroke-opacity:1;stroke-miterlimit:3.25;" d="M 81.179688 223.78125 L 81.390625 223.65625 L 81.601562 223.535156 L 82.027344 223.289062 L 82.871094 222.800781 L 87.945312 219.859375 L 95.277344 215.609375 L 102.125 211.640625 L 108.839844 207.75 L 116.121094 203.527344 L 122.917969 199.589844 L 130.285156 195.320312 L 137.515625 191.128906 L 144.261719 187.21875 L 151.574219 182.980469 L 158.402344 179.019531 L 165.097656 175.140625 L 172.359375 170.933594 L 179.136719 167.003906 L 186.484375 162.746094 L 193.695312 158.566406 L 200.421875 154.667969 L 207.714844 150.441406 L 214.523438 146.492188 L 221.902344 142.21875 L 229.144531 138.019531 L 235.902344 134.101562 L 243.226562 129.855469 L 250.070312 125.890625 L 256.773438 122.003906 L 264.050781 117.789062 L 270.839844 113.851562 L 278.195312 109.589844 L 285.421875 105.402344 L 292.160156 101.496094 L 299.464844 97.261719 L 306.285156 93.308594 L 312.972656 89.433594 L 320.226562 85.226562 L 326.996094 81.304688 L 334.335938 77.050781 L 341.1875 73.078125 L 347.90625 69.183594 L 355.195312 64.960938 L 361.996094 61.019531 L 369.363281 56.746094 L 376.601562 52.554688 L 383.351562 48.640625 L 390.667969 44.398438 L 397.503906 40.4375 L 404.199219 36.554688 L 411.46875 32.34375 L 411.574219 32.28125 L 411.679688 32.222656 L 411.890625 32.097656 L 412.316406 31.851562 L 413.164062 31.359375 L 414.859375 30.378906 L 415.070312 30.253906 L 415.28125 30.132812 L 415.707031 29.886719 L 416.554688 29.394531 L 418.25 28.414062 L 418.367188 28.34375 L 418.484375 28.277344 L 418.722656 28.140625 L 419.195312 27.863281 L 420.140625 27.316406 L 420.261719 27.246094 L 420.378906 27.179688 L 420.617188 27.042969 L 421.089844 26.765625 L 422.035156 26.21875 L 422.152344 26.152344 L 422.269531 26.082031 L 422.507812 25.945312 L 422.980469 25.671875 L 423.097656 25.601562 L 423.21875 25.535156 L 423.453125 25.394531 L 423.925781 25.121094 L 424.046875 25.054688 L 424.164062 24.984375 L 424.402344 24.847656 L 424.519531 24.78125 L 424.636719 24.710938 L 424.875 24.574219 L 424.992188 24.503906 L 425.109375 24.4375 L 425.230469 24.367188 L 425.347656 24.300781 L 425.464844 24.230469 L 425.582031 24.164062 L 425.703125 24.09375 L 425.820312 223.761719 " transform="matrix(1,0,0,1,-74,-13)"/>
</g>
</svg>
