<?xml version="1.0" encoding="UTF-8"?>
<svg xmlns="http://www.w3.org/2000/svg" xmlns:xlink="http://www.w3.org/1999/xlink" width="359pt" height="218pt" viewBox="0 0 359 218" version="1.1">
<g id="surface189">
<path style="fill:none;stroke-width:14.36;stroke-linecap:square;stroke-linejoin:miter;stroke:rgb(0%,0%,0%);stroke-opacity:1;stroke-miterlimit:3.25;" d="M 81.179688 123.9375 L 81.285156 123.746094 L 81.390625 123.550781 L 81.601562 123.167969 L 82.027344 122.398438 L 82.871094 120.859375 L 84.5625 117.785156 L 87.945312 111.652344 L 95.277344 98.554688 L 102.125 86.726562 L 108.839844 75.691406 L 116.121094 64.542969 L 122.917969 55.078125 L 130.285156 46.019531 L 130.511719 45.761719 L 130.738281 45.507812 L 131.1875 45 L 132.09375 44.003906 L 133.898438 42.074219 L 137.515625 38.488281 L 137.621094 38.386719 L 138.359375 37.703125 L 139.203125 36.941406 L 140.886719 35.476562 L 141.097656 35.296875 L 141.308594 35.121094 L 141.730469 34.773438 L 142.574219 34.09375 L 144.261719 32.796875 L 144.375 32.710938 L 144.488281 32.628906 L 144.71875 32.460938 L 145.175781 32.128906 L 146.089844 31.488281 L 147.917969 30.285156 L 148.03125 30.210938 L 148.148438 30.140625 L 148.375 30 L 148.832031 29.71875 L 149.746094 29.183594 L 151.574219 28.183594 L 151.683594 28.128906 L 151.789062 28.074219 L 152.003906 27.96875 L 152.429688 27.757812 L 153.28125 27.351562 L 153.390625 27.300781 L 153.496094 27.253906 L 153.710938 27.15625 L 154.136719 26.96875 L 154.988281 26.609375 L 155.097656 26.566406 L 155.203125 26.523438 L 155.417969 26.441406 L 155.84375 26.277344 L 156.695312 25.964844 L 156.804688 25.925781 L 156.910156 25.890625 L 157.125 25.816406 L 157.550781 25.675781 L 158.402344 25.414062 L 158.613281 25.351562 L 158.820312 25.292969 L 159.242188 25.179688 L 159.34375 25.152344 L 159.449219 25.121094 L 159.660156 25.070312 L 160.078125 24.964844 L 160.179688 24.941406 L 160.285156 24.917969 L 160.496094 24.867188 L 160.914062 24.777344 L 161.75 24.609375 L 161.960938 24.570312 L 162.167969 24.535156 L 162.585938 24.46875 L 162.691406 24.449219 L 162.796875 24.433594 L 163.003906 24.402344 L 163.425781 24.347656 L 163.527344 24.332031 L 163.84375 24.296875 L 163.945312 24.285156 L 164.367188 24.238281 L 164.46875 24.230469 L 164.679688 24.210938 L 164.785156 24.203125 L 164.886719 24.191406 L 165.097656 24.175781 L 165.550781 24.144531 L 165.664062 24.140625 L 165.777344 24.132812 L 166.003906 24.121094 L 166.230469 24.113281 L 166.347656 24.109375 L 166.574219 24.101562 L 166.6875 24.101562 L 166.800781 24.097656 L 166.914062 24.097656 L 167.027344 24.09375 L 167.59375 24.09375 L 167.707031 24.097656 L 167.820312 24.097656 L 167.933594 24.101562 L 168.046875 24.101562 L 168.5 24.117188 L 168.617188 24.121094 L 168.730469 24.125 L 168.84375 24.132812 L 168.957031 24.136719 L 169.183594 24.152344 L 169.296875 24.15625 L 169.410156 24.164062 L 169.636719 24.183594 L 169.863281 24.199219 L 170.089844 24.21875 L 170.65625 24.277344 L 170.773438 24.289062 L 171 24.316406 L 171.453125 24.375 L 171.679688 24.40625 L 172.359375 24.511719 L 172.570312 24.550781 L 172.785156 24.585938 L 173.207031 24.667969 L 173.417969 24.707031 L 173.632812 24.75 L 174.265625 24.890625 L 174.476562 24.941406 L 174.902344 25.042969 L 175.75 25.265625 L 175.960938 25.328125 L 176.171875 25.386719 L 176.597656 25.515625 L 177.441406 25.785156 L 179.136719 26.398438 L 179.253906 26.441406 L 179.367188 26.488281 L 179.597656 26.578125 L 180.054688 26.769531 L 180.972656 27.167969 L 182.808594 28.042969 L 182.925781 28.101562 L 183.039062 28.160156 L 183.269531 28.28125 L 183.726562 28.523438 L 184.648438 29.027344 L 186.484375 30.121094 L 186.597656 30.191406 L 186.707031 30.261719 L 186.933594 30.402344 L 187.382812 30.695312 L 188.285156 31.292969 L 190.089844 32.566406 L 193.695312 35.40625 L 193.90625 35.585938 L 194.113281 35.765625 L 194.535156 36.125 L 195.375 36.863281 L 197.058594 38.402344 L 200.421875 41.71875 L 200.535156 41.835938 L 200.648438 41.957031 L 200.875 42.195312 L 201.332031 42.671875 L 202.242188 43.648438 L 204.066406 45.667969 L 207.714844 49.957031 L 214.523438 58.832031 L 221.902344 69.570312 L 229.144531 81.070312 L 235.902344 92.476562 L 243.226562 105.378906 L 250.070312 117.726562 L 256.773438 129.925781 L 264.050781 143.054688 L 270.839844 155.007812 L 278.195312 167.421875 L 285.421875 178.847656 L 292.160156 188.652344 L 299.464844 198.179688 L 299.570312 198.308594 L 299.679688 198.4375 L 299.890625 198.695312 L 300.316406 199.207031 L 301.171875 200.21875 L 302.875 202.183594 L 306.285156 205.886719 L 306.390625 205.992188 L 306.496094 206.101562 L 306.703125 206.316406 L 307.121094 206.746094 L 307.957031 207.585938 L 309.628906 209.207031 L 309.734375 209.308594 L 309.839844 209.40625 L 310.046875 209.601562 L 310.464844 209.988281 L 311.300781 210.75 L 312.972656 212.214844 L 313.085938 212.308594 L 313.199219 212.40625 L 313.425781 212.597656 L 313.878906 212.972656 L 314.785156 213.707031 L 316.601562 215.105469 L 316.828125 215.269531 L 317.054688 215.4375 L 317.507812 215.765625 L 318.414062 216.398438 L 320.226562 217.59375 L 320.4375 217.726562 L 320.652344 217.859375 L 321.074219 218.117188 L 321.921875 218.617188 L 323.613281 219.550781 L 324.035156 219.769531 L 324.457031 219.984375 L 325.304688 220.390625 L 326.996094 221.140625 L 327.113281 221.1875 L 327.226562 221.238281 L 327.457031 221.328125 L 327.914062 221.507812 L 328.832031 221.851562 L 328.945312 221.890625 L 329.0625 221.929688 L 329.289062 222.011719 L 329.75 222.164062 L 330.667969 222.449219 L 330.78125 222.484375 L 330.894531 222.515625 L 331.125 222.582031 L 331.582031 222.707031 L 331.699219 222.738281 L 331.8125 222.765625 L 332.042969 222.824219 L 332.5 222.9375 L 332.617188 222.964844 L 332.730469 222.992188 L 332.960938 223.042969 L 333.417969 223.140625 L 334.335938 223.316406 L 334.441406 223.332031 L 334.550781 223.351562 L 334.765625 223.386719 L 335.191406 223.453125 L 335.300781 223.46875 L 335.40625 223.484375 L 335.621094 223.511719 L 336.046875 223.566406 L 336.15625 223.578125 L 336.261719 223.59375 L 336.476562 223.613281 L 336.585938 223.625 L 336.691406 223.636719 L 336.90625 223.65625 L 337.011719 223.667969 L 337.121094 223.675781 L 337.332031 223.691406 L 337.441406 223.699219 L 337.546875 223.707031 L 337.761719 223.722656 L 337.867188 223.730469 L 337.976562 223.734375 L 338.082031 223.742188 L 338.191406 223.746094 L 338.402344 223.753906 L 338.511719 223.757812 L 338.617188 223.761719 L 338.726562 223.765625 L 338.832031 223.769531 L 338.941406 223.773438 L 339.046875 223.773438 L 339.152344 223.777344 L 339.261719 223.777344 L 339.367188 223.78125 L 339.902344 223.78125 L 340.011719 223.777344 L 340.117188 223.777344 L 340.222656 223.773438 L 340.332031 223.773438 L 340.4375 223.769531 L 340.546875 223.765625 L 340.652344 223.761719 L 340.761719 223.757812 L 340.972656 223.75 L 341.1875 223.742188 L 341.292969 223.734375 L 341.398438 223.730469 L 341.714844 223.707031 L 341.816406 223.703125 L 342.027344 223.683594 L 342.238281 223.667969 L 342.449219 223.648438 L 342.867188 223.605469 L 343.289062 223.558594 L 343.707031 223.503906 L 343.8125 223.492188 L 344.128906 223.445312 L 344.546875 223.378906 L 344.652344 223.363281 L 344.757812 223.34375 L 344.96875 223.308594 L 345.386719 223.230469 L 345.597656 223.191406 L 345.808594 223.148438 L 346.226562 223.058594 L 346.648438 222.964844 L 347.066406 222.863281 L 347.90625 222.648438 L 348.019531 222.617188 L 348.132812 222.582031 L 348.363281 222.519531 L 348.816406 222.382812 L 349.726562 222.09375 L 349.84375 222.054688 L 349.957031 222.019531 L 350.183594 221.9375 L 350.640625 221.777344 L 351.550781 221.433594 L 351.664062 221.386719 L 351.777344 221.34375 L 352.003906 221.25 L 352.460938 221.0625 L 353.371094 220.664062 L 355.195312 219.789062 L 355.617188 219.570312 L 356.042969 219.34375 L 356.894531 218.878906 L 358.59375 217.875 L 358.804688 217.742188 L 359.019531 217.609375 L 359.445312 217.339844 L 360.292969 216.78125 L 361.996094 215.597656 L 362.109375 215.515625 L 362.226562 215.429688 L 362.457031 215.261719 L 362.914062 214.917969 L 363.835938 214.214844 L 365.679688 212.730469 L 369.363281 209.46875 L 369.476562 209.359375 L 369.589844 209.253906 L 369.816406 209.039062 L 370.269531 208.605469 L 371.171875 207.722656 L 372.984375 205.886719 L 376.601562 201.949219 L 383.351562 193.707031 L 390.667969 183.585938 L 397.503906 173.171875 L 404.199219 162.226562 L 411.46875 149.707031 L 418.25 137.613281 L 418.367188 137.398438 L 418.484375 137.1875 L 418.722656 136.757812 L 420.140625 134.191406 L 422.035156 130.757812 L 422.269531 130.328125 L 422.507812 129.898438 L 423.925781 127.320312 L 424.046875 127.105469 L 424.164062 126.886719 L 424.402344 126.457031 L 424.875 125.597656 L 425.109375 125.167969 L 425.347656 124.734375 L 425.582031 124.304688 L 425.703125 124.089844 L 425.820312 123.875 " transform="matrix(1,0,0,1,-74,-13)"/>
</g>
</svg>
