<?xml version="1.0" encoding="UTF-8"?>
<svg xmlns="http://www.w3.org/2000/svg" xmlns:xlink="http://www.w3.org/1999/xlink" width="359pt" height="218pt" viewBox="0 0 359 218" version="1.1">
<g id="surface231">
<path style="fill:none;stroke-width:14.36;stroke-linecap:square;stroke-linejoin:miter;stroke:rgb(0%,0%,0%);stroke-opacity:1;stroke-miterlimit:3.25;" d="M 81.179688 194.722656 L 81.390625 194.378906 L 81.601562 194.03125 L 82.027344 193.328125 L 82.871094 191.867188 L 84.5625 188.773438 L 87.945312 181.945312 L 88.058594 181.699219 L 88.175781 181.457031 L 88.402344 180.960938 L 88.863281 179.964844 L 89.777344 177.9375 L 91.613281 173.746094 L 95.277344 164.972656 L 102.125 148.046875 L 102.230469 147.789062 L 102.335938 147.535156 L 102.546875 147.023438 L 102.964844 146.003906 L 103.804688 143.984375 L 105.484375 140.027344 L 105.589844 139.78125 L 105.691406 139.539062 L 106.324219 138.097656 L 107.160156 136.207031 L 108.839844 132.5625 L 109.066406 132.085938 L 109.296875 131.609375 L 109.75 130.675781 L 110.660156 128.855469 L 112.480469 125.445312 L 112.59375 125.246094 L 112.707031 125.042969 L 112.9375 124.648438 L 113.390625 123.871094 L 114.300781 122.386719 L 116.121094 119.722656 L 116.230469 119.582031 L 116.335938 119.441406 L 116.546875 119.164062 L 116.972656 118.632812 L 117.078125 118.5 L 117.183594 118.375 L 117.398438 118.121094 L 117.820312 117.640625 L 117.929688 117.523438 L 118.035156 117.40625 L 118.246094 117.183594 L 118.671875 116.753906 L 119.519531 115.976562 L 119.628906 115.886719 L 119.945312 115.628906 L 120.371094 115.3125 L 120.582031 115.164062 L 120.796875 115.027344 L 121.21875 114.765625 L 121.324219 114.707031 L 121.433594 114.648438 L 121.644531 114.539062 L 121.855469 114.4375 L 122.070312 114.34375 L 122.175781 114.296875 L 122.28125 114.253906 L 122.496094 114.175781 L 122.707031 114.105469 L 122.917969 114.042969 L 123.035156 114.011719 L 123.148438 113.980469 L 123.265625 113.957031 L 123.378906 113.929688 L 123.496094 113.910156 L 123.609375 113.890625 L 123.726562 113.871094 L 123.839844 113.859375 L 123.953125 113.84375 L 124.070312 113.835938 L 124.183594 113.828125 L 124.300781 113.824219 L 124.414062 113.820312 L 124.644531 113.820312 L 124.761719 113.824219 L 124.875 113.832031 L 124.992188 113.839844 L 125.105469 113.851562 L 125.222656 113.867188 L 125.335938 113.882812 L 125.449219 113.902344 L 125.566406 113.921875 L 125.679688 113.945312 L 125.796875 113.972656 L 125.910156 114 L 126.027344 114.03125 L 126.140625 114.0625 L 126.257812 114.097656 L 126.371094 114.136719 L 126.601562 114.21875 L 126.71875 114.265625 L 126.832031 114.3125 L 127.0625 114.414062 L 127.175781 114.46875 L 127.292969 114.527344 L 127.523438 114.648438 L 127.636719 114.710938 L 127.753906 114.777344 L 127.984375 114.917969 L 128.441406 115.230469 L 128.558594 115.3125 L 128.671875 115.398438 L 128.902344 115.578125 L 129.363281 115.964844 L 129.480469 116.066406 L 129.59375 116.171875 L 129.824219 116.386719 L 130.285156 116.847656 L 130.398438 116.96875 L 130.511719 117.085938 L 130.738281 117.335938 L 131.1875 117.859375 L 132.09375 119.003906 L 132.207031 119.15625 L 132.320312 119.3125 L 132.542969 119.628906 L 132.996094 120.28125 L 133.898438 121.683594 L 134.011719 121.867188 L 134.351562 122.429688 L 134.804688 123.203125 L 135.707031 124.832031 L 135.917969 125.226562 " transform="matrix(1,0,0,1,-74,-13)"/>
<path style="fill:none;stroke-width:14.36;stroke-linecap:square;stroke-linejoin:miter;stroke:rgb(0%,0%,0%);stroke-opacity:1;stroke-miterlimit:3.25;" d="M 136.136719 125.644531 L 137.726562 128.824219 L 137.9375 129.265625 L 138.359375 130.160156 L 139.203125 131.996094 L 140.886719 135.820312 L 144.261719 143.824219 L 144.375 144.101562 L 144.488281 144.375 L 144.71875 144.925781 L 146.089844 148.207031 L 147.917969 152.503906 L 148.03125 152.765625 L 148.148438 153.03125 L 148.375 153.554688 L 148.832031 154.597656 L 149.746094 156.640625 L 151.574219 160.554688 L 151.683594 160.773438 L 151.789062 160.992188 L 152.003906 161.429688 L 152.429688 162.285156 L 153.28125 163.953125 L 154.988281 167.058594 L 155.097656 167.242188 L 155.203125 167.425781 L 155.417969 167.789062 L 155.84375 168.496094 L 156.695312 169.847656 L 158.402344 172.28125 L 158.507812 172.421875 L 158.613281 172.554688 L 158.820312 172.824219 L 159.242188 173.34375 L 160.078125 174.3125 L 160.179688 174.429688 L 160.285156 174.542969 L 160.496094 174.761719 L 160.914062 175.191406 L 161.75 175.972656 L 161.960938 176.152344 L 162.167969 176.328125 L 162.585938 176.660156 L 162.796875 176.816406 L 163.003906 176.96875 L 163.425781 177.25 L 163.527344 177.316406 L 163.632812 177.382812 L 163.84375 177.507812 L 164.261719 177.742188 L 164.367188 177.800781 L 164.46875 177.851562 L 164.679688 177.953125 L 165.097656 178.140625 L 165.210938 178.1875 L 165.324219 178.230469 L 165.550781 178.3125 L 165.777344 178.390625 L 166.003906 178.460938 L 166.117188 178.492188 L 166.230469 178.519531 L 166.347656 178.550781 L 166.460938 178.574219 L 166.574219 178.601562 L 166.6875 178.621094 L 166.800781 178.644531 L 166.914062 178.664062 L 167.253906 178.710938 L 167.367188 178.722656 L 167.707031 178.746094 L 167.933594 178.753906 L 168.160156 178.753906 L 168.5 178.742188 L 168.617188 178.734375 L 168.957031 178.699219 L 169.183594 178.667969 L 169.410156 178.628906 L 169.75 178.558594 L 169.863281 178.53125 L 170.203125 178.4375 L 170.316406 178.402344 L 170.542969 178.328125 L 170.65625 178.289062 L 170.773438 178.246094 L 171 178.160156 L 171.113281 178.113281 L 171.453125 177.960938 L 171.679688 177.851562 L 171.90625 177.734375 L 172.359375 177.484375 L 172.464844 177.417969 L 172.570312 177.355469 L 172.785156 177.222656 L 173.207031 176.9375 L 173.3125 176.863281 L 173.417969 176.785156 L 173.632812 176.628906 L 174.054688 176.296875 L 174.160156 176.210938 L 174.476562 175.941406 L 174.902344 175.5625 L 175.75 174.738281 L 175.855469 174.628906 L 175.960938 174.515625 L 176.171875 174.292969 L 176.597656 173.820312 L 177.441406 172.816406 L 179.136719 170.550781 L 179.253906 170.386719 L 179.367188 170.21875 L 179.597656 169.878906 L 180.054688 169.183594 L 180.972656 167.722656 L 182.808594 164.523438 L 182.925781 164.3125 L 183.039062 164.097656 L 183.269531 163.667969 L 183.726562 162.792969 L 184.648438 160.980469 L 186.484375 157.113281 L 186.597656 156.867188 L 186.707031 156.621094 L 186.933594 156.121094 L 187.382812 155.109375 L 188.285156 153.035156 L 190.089844 148.695312 L 193.695312 139.351562 L 200.421875 120.226562 L 207.714844 98.488281 L 214.523438 78.933594 L 214.640625 78.617188 L 214.753906 78.300781 L 214.984375 77.671875 L 215.445312 76.425781 L 216.367188 73.960938 L 218.210938 69.183594 L 218.328125 68.890625 L 218.441406 68.601562 L 218.671875 68.023438 L 219.132812 66.875 L 220.058594 64.625 L 221.902344 60.308594 L 222.015625 60.054688 L 222.128906 59.796875 L 222.355469 59.289062 L 222.808594 58.289062 L 223.710938 56.335938 L 225.523438 52.640625 L 225.636719 52.417969 L 225.75 52.199219 L 225.976562 51.765625 L 226.429688 50.90625 L 227.332031 49.246094 L 229.144531 46.171875 L 229.355469 45.835938 L 229.566406 45.503906 L 229.988281 44.851562 L 230.835938 43.609375 L 230.941406 43.457031 L 231.046875 43.308594 L 231.257812 43.015625 L 231.679688 42.4375 L 232.523438 41.347656 L 232.628906 41.214844 L 232.734375 41.085938 L 232.945312 40.832031 L 233.367188 40.335938 L 234.210938 39.402344 L 234.316406 39.292969 L 234.425781 39.183594 L 234.636719 38.964844 L 235.058594 38.550781 L 235.902344 37.78125 L 236.015625 37.683594 L 236.132812 37.589844 L 236.359375 37.402344 L 236.816406 37.042969 L 236.933594 36.957031 L 237.046875 36.875 L 237.277344 36.710938 L 237.734375 36.40625 L 237.847656 36.332031 L 237.960938 36.261719 L 238.191406 36.121094 L 238.648438 35.867188 L 238.765625 35.804688 L 238.878906 35.746094 L 239.105469 35.632812 L 239.566406 35.425781 L 239.679688 35.378906 L 239.792969 35.335938 L 240.023438 35.246094 L 240.136719 35.207031 L 240.253906 35.167969 L 240.480469 35.089844 L 240.59375 35.058594 L 240.710938 35.023438 L 240.9375 34.960938 L 241.054688 34.933594 L 241.167969 34.90625 L 241.398438 34.859375 L 241.511719 34.835938 L 241.738281 34.796875 L 241.855469 34.78125 L 242.082031 34.75 L 242.199219 34.738281 L 242.3125 34.730469 L 242.425781 34.71875 L 242.542969 34.710938 L 242.769531 34.703125 L 242.886719 34.699219 L 243.113281 34.699219 L 243.226562 34.703125 L 243.335938 34.707031 L 243.441406 34.710938 L 243.550781 34.71875 L 243.761719 34.734375 L 243.871094 34.746094 L 243.976562 34.757812 L 244.082031 34.773438 L 244.191406 34.789062 L 244.402344 34.820312 L 244.511719 34.839844 L 244.617188 34.863281 L 244.726562 34.882812 L 244.9375 34.933594 L 245.046875 34.957031 L 245.152344 34.988281 L 245.367188 35.046875 L 245.472656 35.078125 L 245.578125 35.113281 L 245.792969 35.183594 L 245.902344 35.222656 L 246.007812 35.261719 L 246.222656 35.34375 L 246.648438 35.523438 L 246.753906 35.574219 L 246.863281 35.625 L 247.074219 35.730469 L 247.503906 35.957031 L 247.609375 36.015625 L 247.71875 36.078125 L 247.929688 36.207031 L 248.359375 36.480469 L 248.464844 36.550781 L 248.574219 36.625 L 248.785156 36.773438 L 249.214844 37.09375 L 250.070312 37.792969 L 250.171875 37.886719 L 250.277344 37.980469 L 250.488281 38.171875 L 250.90625 38.570312 L 251.746094 39.429688 L 251.851562 39.542969 L 251.953125 39.65625 L 252.164062 39.890625 L 252.582031 40.371094 L 253.421875 41.398438 L 253.527344 41.53125 L 253.632812 41.667969 L 253.839844 41.945312 L 254.261719 42.507812 L 255.097656 43.699219 L 256.773438 46.324219 L 256.886719 46.511719 L 257.003906 46.703125 L 257.230469 47.089844 L 257.683594 47.878906 L 258.59375 49.523438 L 260.414062 53.078125 L 260.640625 53.546875 L 260.867188 54.023438 L 261.320312 54.984375 L 262.230469 56.976562 L 264.050781 61.195312 L 264.15625 61.453125 L 264.261719 61.707031 L 264.472656 62.226562 L 264.898438 63.269531 L 265.746094 65.410156 L 267.445312 69.875 L 270.839844 79.484375 L 278.195312 102.789062 L 285.421875 127.605469 L 292.160156 150.929688 L 299.464844 174.703125 L 299.570312 175.03125 L 299.679688 175.355469 L 299.890625 176.003906 L 300.316406 177.296875 L 301.171875 179.839844 L 302.875 184.777344 L 302.980469 185.082031 L 303.089844 185.382812 L 303.300781 185.980469 L 303.726562 187.167969 L 304.582031 189.496094 L 306.285156 193.976562 L 306.496094 194.507812 L 306.703125 195.035156 L 307.121094 196.082031 L 307.957031 198.121094 L 309.628906 202 L 309.734375 202.230469 L 309.839844 202.464844 L 310.046875 202.925781 L 310.464844 203.835938 L 311.300781 205.601562 L 312.972656 208.910156 L 313.085938 209.121094 L 313.199219 209.335938 L 313.425781 209.753906 L 313.878906 210.578125 L 314.785156 212.152344 L 314.898438 212.34375 L 315.238281 212.90625 L 315.691406 213.636719 L 316.601562 215.023438 L 316.714844 215.191406 L 316.828125 215.355469 L 317.054688 215.679688 L 317.507812 216.3125 L 318.414062 217.503906 L 318.527344 217.648438 L 318.640625 217.785156 L 318.867188 218.0625 L 319.320312 218.597656 L 320.226562 219.585938 L 320.332031 219.695312 L 320.4375 219.800781 L 320.652344 220.011719 L 321.074219 220.417969 L 321.285156 220.613281 L 321.496094 220.800781 L 321.921875 221.160156 L 322.132812 221.332031 L 322.34375 221.496094 L 322.765625 221.808594 L 322.976562 221.957031 L 323.1875 222.101562 L 323.613281 222.367188 L 323.824219 222.492188 L 324.035156 222.613281 L 324.457031 222.835938 L 324.5625 222.886719 L 324.671875 222.9375 L 324.882812 223.03125 L 325.304688 223.207031 L 325.410156 223.25 L 325.515625 223.289062 L 325.832031 223.394531 L 325.9375 223.425781 L 326.152344 223.488281 L 326.46875 223.570312 L 326.679688 223.617188 L 326.996094 223.675781 L 327.113281 223.695312 L 327.339844 223.726562 L 327.457031 223.738281 L 327.570312 223.75 L 327.683594 223.757812 L 327.800781 223.765625 L 327.914062 223.773438 L 328.027344 223.777344 L 328.144531 223.78125 L 328.375 223.78125 L 328.601562 223.773438 L 328.71875 223.765625 L 328.945312 223.75 L 329.0625 223.738281 L 329.175781 223.726562 L 329.289062 223.710938 L 329.40625 223.695312 L 329.632812 223.65625 L 329.75 223.632812 L 329.863281 223.613281 L 329.976562 223.585938 L 330.207031 223.53125 L 330.324219 223.5 L 330.4375 223.46875 L 330.667969 223.398438 L 330.78125 223.363281 L 330.894531 223.324219 L 331.125 223.242188 L 331.238281 223.195312 L 331.355469 223.152344 L 331.582031 223.054688 L 331.699219 223.003906 L 331.8125 222.953125 L 332.042969 222.839844 L 332.5 222.601562 L 332.617188 222.535156 L 332.730469 222.46875 L 332.960938 222.332031 L 333.417969 222.035156 L 333.53125 221.957031 L 333.648438 221.878906 L 333.878906 221.710938 L 334.335938 221.363281 L 334.441406 221.277344 L 334.550781 221.1875 L 334.765625 221.011719 L 335.191406 220.632812 L 336.046875 219.8125 L 336.15625 219.703125 L 336.261719 219.59375 L 336.476562 219.367188 L 336.90625 218.898438 L 337.761719 217.894531 L 337.867188 217.761719 L 337.976562 217.628906 L 338.191406 217.355469 L 338.617188 216.796875 L 339.476562 215.609375 L 341.1875 212.964844 L 341.292969 212.792969 L 341.609375 212.265625 L 342.027344 211.542969 L 342.867188 210.039062 L 344.546875 206.789062 L 344.757812 206.359375 L 344.96875 205.925781 L 345.386719 205.046875 L 346.226562 203.226562 L 347.90625 199.367188 L 348.019531 199.097656 L 348.132812 198.824219 L 348.363281 198.273438 L 348.816406 197.15625 L 349.726562 194.863281 L 351.550781 190.042969 L 355.195312 179.542969 L 355.300781 179.222656 L 355.617188 178.25 L 356.042969 176.945312 L 356.894531 174.296875 L 358.59375 168.851562 L 361.996094 157.464844 L 369.363281 131.230469 L 376.601562 104.933594 L 383.351562 81.535156 L 383.464844 81.160156 L 383.578125 80.78125 L 383.808594 80.027344 L 384.265625 78.53125 L 385.179688 75.578125 L 387.011719 69.835938 L 387.125 69.488281 L 387.238281 69.136719 L 387.46875 68.4375 L 387.925781 67.054688 L 388.839844 64.335938 L 390.667969 59.105469 L 390.777344 58.808594 L 390.882812 58.511719 L 391.097656 57.925781 L 391.523438 56.757812 L 392.378906 54.480469 L 394.085938 50.128906 L 394.191406 49.863281 L 394.300781 49.605469 L 394.511719 49.085938 L 394.941406 48.058594 L 395.792969 46.0625 L 397.503906 42.304688 L 397.605469 42.085938 L 397.921875 41.429688 L 398.339844 40.578125 L 399.175781 38.929688 L 399.28125 38.726562 L 399.386719 38.53125 L 399.59375 38.132812 L 400.015625 37.359375 L 400.851562 35.875 L 401.0625 35.515625 L 401.269531 35.160156 L 401.6875 34.46875 L 402.527344 33.152344 L 404.199219 30.769531 L 404.3125 30.621094 L 404.429688 30.472656 L 404.65625 30.183594 L 405.109375 29.625 L 406.015625 28.582031 L 406.132812 28.460938 L 406.246094 28.339844 L 406.472656 28.101562 L 406.925781 27.648438 L 407.835938 26.820312 L 408.0625 26.632812 L 408.289062 26.449219 L 408.742188 26.101562 L 408.855469 26.019531 L 409.195312 25.785156 L 409.652344 25.492188 L 409.765625 25.421875 L 409.878906 25.355469 L 410.105469 25.226562 L 410.21875 25.167969 L 410.332031 25.105469 L 410.558594 24.992188 L 410.785156 24.882812 L 411.015625 24.78125 L 411.46875 24.601562 L 411.574219 24.5625 L 411.890625 24.457031 L 411.996094 24.425781 L 412.105469 24.394531 L 412.316406 24.335938 L 412.421875 24.308594 L 412.738281 24.238281 L 412.84375 24.21875 L 412.953125 24.199219 L 413.269531 24.152344 L 413.480469 24.128906 L 413.585938 24.121094 L 413.695312 24.113281 L 413.800781 24.105469 L 414.117188 24.09375 L 414.328125 24.09375 L 414.433594 24.097656 L 414.542969 24.101562 L 414.648438 24.105469 L 414.859375 24.121094 L 415.175781 24.15625 L 415.28125 24.171875 L 415.390625 24.1875 L 415.496094 24.203125 L 415.707031 24.246094 L 415.8125 24.265625 L 415.917969 24.289062 L 416.128906 24.34375 L 416.238281 24.371094 L 416.34375 24.398438 L 416.554688 24.464844 L 416.765625 24.535156 L 416.976562 24.609375 L 417.085938 24.648438 L 417.191406 24.691406 L 417.402344 24.78125 L 417.613281 24.875 L 417.824219 24.972656 L 418.25 25.191406 L 418.484375 25.324219 L 418.722656 25.464844 L 419.195312 25.765625 L 419.3125 25.847656 L 419.433594 25.929688 L 419.667969 26.097656 L 420.140625 26.460938 L 420.261719 26.554688 L 420.378906 26.652344 L 420.617188 26.851562 L 421.089844 27.269531 L 422.035156 28.199219 L 422.269531 28.449219 L 422.507812 28.707031 L 422.980469 29.246094 L 423.925781 30.40625 L 424.046875 30.558594 L 424.164062 30.714844 L 424.402344 31.027344 L 424.875 31.679688 L 425.109375 32.015625 L 425.347656 32.359375 L 425.464844 32.53125 L 425.582031 32.707031 L 425.703125 32.886719 L 425.820312 33.066406 " transform="matrix(1,0,0,1,-74,-13)"/>
</g>
</svg>
