<?xml version="1.0" encoding="UTF-8"?>
<svg xmlns="http://www.w3.org/2000/svg" xmlns:xlink="http://www.w3.org/1999/xlink" width="359pt" height="219pt" viewBox="0 0 359 219" version="1.1">
<g id="surface196">
<path style="fill:none;stroke-width:14.36;stroke-linecap:square;stroke-linejoin:miter;stroke:rgb(0%,0%,0%);stroke-opacity:1;stroke-miterlimit:3.25;" d="M 81.179688 123.945312 L 81.390625 123.703125 L 81.601562 123.457031 L 82.027344 122.964844 L 82.871094 121.984375 L 87.945312 116.101562 L 95.277344 107.597656 L 102.125 99.660156 L 108.839844 91.875 L 116.121094 83.429688 L 122.917969 75.550781 L 130.285156 67.007812 L 137.515625 58.625 L 144.261719 50.804688 L 151.574219 42.320312 L 158.402344 34.40625 L 158.507812 34.28125 L 158.613281 34.160156 L 158.820312 33.917969 L 159.242188 33.433594 L 160.078125 32.464844 L 161.75 30.523438 L 161.960938 30.28125 L 162.167969 30.039062 L 162.585938 29.554688 L 163.425781 28.582031 L 165.097656 26.644531 L 165.324219 26.378906 L 165.550781 26.117188 L 166.003906 25.589844 L 166.117188 25.457031 L 166.230469 25.328125 L 166.460938 25.0625 L 166.914062 24.539062 L 167.253906 24.140625 L 167.367188 24.09375 L 167.480469 24.226562 L 167.59375 24.355469 L 167.820312 24.621094 L 167.933594 24.75 L 168.046875 24.882812 L 168.273438 25.144531 L 168.730469 25.671875 L 168.957031 25.9375 L 169.183594 26.199219 L 169.636719 26.726562 L 170.542969 27.777344 L 172.359375 29.882812 L 172.464844 30.007812 L 172.570312 30.128906 L 172.785156 30.375 L 173.207031 30.867188 L 174.054688 31.847656 L 175.75 33.8125 L 179.136719 37.742188 L 186.484375 46.257812 L 193.695312 54.621094 L 200.421875 62.417969 L 207.714844 70.878906 L 214.523438 78.773438 L 221.902344 87.328125 L 229.144531 95.726562 L 235.902344 103.5625 L 243.226562 112.054688 L 250.070312 119.988281 L 256.773438 127.765625 L 264.050781 136.199219 L 270.839844 144.070312 L 278.195312 152.601562 L 285.421875 160.980469 L 292.160156 168.792969 L 299.464844 177.265625 L 306.285156 185.171875 L 312.972656 192.925781 L 320.226562 201.339844 L 326.996094 209.1875 L 327.113281 209.320312 L 327.226562 209.453125 L 327.457031 209.71875 L 327.914062 210.25 L 328.832031 211.316406 L 330.667969 213.441406 L 330.894531 213.707031 L 331.125 213.972656 L 331.582031 214.507812 L 334.335938 217.695312 L 334.441406 217.820312 L 334.550781 217.945312 L 334.765625 218.195312 L 335.191406 218.691406 L 336.046875 219.683594 L 336.15625 219.808594 L 336.261719 219.933594 L 336.476562 220.179688 L 336.90625 220.675781 L 337.761719 221.671875 L 337.867188 221.792969 L 337.976562 221.917969 L 338.191406 222.167969 L 338.617188 222.664062 L 338.726562 222.789062 L 338.832031 222.910156 L 339.046875 223.160156 L 339.152344 223.285156 L 339.261719 223.40625 L 339.367188 223.53125 L 339.476562 223.65625 L 339.582031 223.78125 L 339.6875 223.777344 L 339.796875 223.652344 L 339.902344 223.527344 L 340.011719 223.40625 L 340.117188 223.28125 L 340.332031 223.03125 L 340.4375 222.90625 L 340.546875 222.785156 L 340.761719 222.535156 L 341.1875 222.039062 L 341.398438 221.796875 L 341.609375 221.550781 L 342.027344 221.066406 L 342.867188 220.089844 L 344.546875 218.144531 L 347.90625 214.25 L 355.195312 205.800781 L 361.996094 197.914062 L 369.363281 189.367188 L 376.601562 180.976562 L 383.351562 173.152344 L 390.667969 164.664062 L 397.503906 156.742188 L 404.199219 148.976562 L 411.46875 140.546875 L 418.25 132.683594 L 418.484375 132.410156 L 418.722656 132.136719 L 419.195312 131.585938 L 420.140625 130.488281 L 422.035156 128.296875 L 422.152344 128.160156 L 422.269531 128.019531 L 422.507812 127.746094 L 422.980469 127.199219 L 423.925781 126.101562 L 424.046875 125.964844 L 424.164062 125.828125 L 424.402344 125.550781 L 424.875 125.003906 L 425.109375 124.730469 L 425.347656 124.457031 L 425.464844 124.316406 L 425.582031 124.179688 L 425.703125 124.042969 L 425.820312 123.90625 " transform="matrix(1,0,0,1,-74,-13)"/>
</g>
</svg>
